<svg width="32" height="33" viewBox="0 0 32 33" fill="none" xmlns="http://www.w3.org/2000/svg">
<path d="M9.39929 33C10.4961 33 11.3852 32.0378 11.3852 30.8509C11.3852 29.664 10.4961 28.7019 9.39929 28.7019C8.30247 28.7019 7.41333 29.664 7.41333 30.8509C7.41333 32.0378 8.30247 33 9.39929 33Z" fill="black"/>
<path d="M21.465 33C22.5618 33 23.4509 32.0378 23.4509 30.8509C23.4509 29.664 22.5618 28.7019 21.465 28.7019C20.3681 28.7019 19.479 29.664 19.479 30.8509C19.479 32.0378 20.3681 33 21.465 33Z" fill="black"/>
<path d="M15.4495 9.12161C15.4093 8.80507 15.3886 8.48598 15.3877 8.16647C15.3886 7.84696 15.4093 7.52787 15.4495 7.21133H5.18932L5.76304 9.12161H15.4495Z" fill="black"/>
<path d="M23.5807 17.6256H23.21L22.6389 20.5833H9.39914L5.36544 6.76247C5.32181 6.61582 5.24604 6.48276 5.14461 6.37465C5.04317 6.26655 4.91907 6.1866 4.7829 6.14163L1.16404 4.93815C1.05277 4.90115 0.935846 4.88823 0.819956 4.90012C0.704067 4.91202 0.591477 4.9485 0.488615 5.00748C0.280877 5.1266 0.125375 5.33014 0.0563174 5.57332C-0.01274 5.81651 0.0103044 6.07942 0.120381 6.30422C0.230457 6.52902 0.418549 6.69729 0.643278 6.77202L3.81198 7.82267L7.86333 21.6722L6.41579 22.9521L6.30105 23.0762C5.94299 23.5228 5.74004 24.0904 5.72715 24.6814C5.71426 25.2725 5.89224 25.8499 6.23044 26.3142C6.47101 26.6307 6.77671 26.882 7.12309 27.0479C7.46947 27.2137 7.84691 27.2896 8.22522 27.2693H22.9566C23.1907 27.2693 23.4152 27.1687 23.5807 26.9895C23.7463 26.8104 23.8393 26.5675 23.8393 26.3142C23.8393 26.0608 23.7463 25.8179 23.5807 25.6388C23.4152 25.4597 23.1907 25.359 22.9566 25.359H8.084C7.98236 25.3553 7.88333 25.3232 7.79648 25.2659C7.70963 25.2087 7.6379 25.1282 7.58821 25.0321C7.53852 24.9361 7.51255 24.8278 7.51281 24.7178C7.51308 24.6077 7.53956 24.4996 7.58971 24.4039L9.71689 22.4936H23.345C23.549 22.499 23.7485 22.4277 23.9094 22.2919C24.0703 22.156 24.1828 21.9641 24.2276 21.7486L25.0812 17.4441C24.5891 17.5663 24.0857 17.6271 23.5807 17.6256Z" fill="black"/>
<path d="M24.1671 16.0532C28.1793 16.0532 31.4319 12.5335 31.4319 8.19181C31.4319 3.85007 28.1793 0.330391 24.1671 0.330391C20.1549 0.330391 16.9023 3.85007 16.9023 8.19181C16.9023 12.5335 20.1549 16.0532 24.1671 16.0532Z" fill="#FFB700"/>
<path d="M24.17 12.09C23.3167 12.09 22.6767 11.7967 22.25 11.21C21.83 10.6167 21.62 9.85333 21.62 8.92C21.62 8.26667 21.74 7.69667 21.98 7.21C22.22 6.71667 22.5467 6.34 22.96 6.08C23.3733 5.82 23.8267 5.69 24.32 5.69C25.1867 5.69 25.82 5.97 26.22 6.53C26.62 7.08333 26.82 7.84333 26.82 8.81C26.82 9.45667 26.7033 10.03 26.47 10.53C26.2433 11.0233 25.9267 11.4067 25.52 11.68C25.12 11.9533 24.67 12.09 24.17 12.09ZM24.21 11.58C25.2033 11.58 25.7 10.69 25.7 8.91C25.7 8.04333 25.5867 7.37667 25.36 6.91C25.14 6.44333 24.7667 6.21 24.24 6.21C23.7267 6.21 23.3467 6.43333 23.1 6.88C22.8533 7.32 22.73 7.95333 22.73 8.78C22.73 9.62667 22.8467 10.3067 23.08 10.82C23.32 11.3267 23.6967 11.58 24.21 11.58Z" fill="black"/>
</svg>
